<svg xmlns="http://www.w3.org/2000/svg" viewBox="0 -0.5 16 16" shape-rendering="crispEdges" preserveAspectRatio="xMinYMin ">
<metadata>Made with Pixels to Svg https://codepen.io/shshaw/pen/XbxvNj</metadata>
<path stroke="#e3b53d" d="M1 0h9M0 1h1M10 1h1M15 1h1M10 2h1M15 2h1M15 3h1M4 4h1M6 4h2M14 4h1M4 5h2M8 5h1M14 5h1M8 6h1M13 6h1M13 7h1M6 8h1M12 8h1M6 9h1M12 9h1M7 10h1M11 10h1M7 11h1M11 11h1M7 12h1M10 12h1M10 13h1M9 14h1M7 15h3" />
<path stroke="#000000" d="M11 0h4M11 1h4M0 2h10M12 2h2M0 3h10M12 3h2M1 4h2M11 4h2M1 5h2M11 5h2M2 6h2M5 6h3M10 6h2M2 7h2M5 7h3M10 7h2M3 8h2M9 8h2M3 9h2M9 9h2M4 10h2M8 10h2M4 11h2M8 11h2M5 12h2M8 12h1M5 13h4M6 14h2" />
<path stroke="#f1d46c" d="M1 1h9M11 2h1M14 2h1M11 3h1M14 3h1M3 4h1M13 4h1M3 5h1M6 5h2M13 5h1M4 6h1M12 6h1M4 7h1M12 7h1M5 8h1M11 8h1M5 9h1M11 9h1M6 10h1M10 10h1M6 11h1M10 11h1M9 12h1M9 13h1M8 14h1" />
</svg>
