<?xml version="1.0" encoding="UTF-8" standalone="no"?>
<!-- Created with Inkscape (http://www.inkscape.org/) -->
<svg
   xmlns:dc="http://purl.org/dc/elements/1.1/"
   xmlns:cc="http://creativecommons.org/ns#"
   xmlns:rdf="http://www.w3.org/1999/02/22-rdf-syntax-ns#"
   xmlns:svg="http://www.w3.org/2000/svg"
   xmlns="http://www.w3.org/2000/svg"
   xmlns:sodipodi="http://sodipodi.sourceforge.net/DTD/sodipodi-0.dtd"
   xmlns:inkscape="http://www.inkscape.org/namespaces/inkscape"
   id="svg2"
   sodipodi:version="0.32"
   inkscape:version="0.46"
   width="900"
   height="630"
   xml:space="preserve"
   sodipodi:docname="morlet.svg"
   inkscape:output_extension="org.inkscape.output.svg.inkscape"><metadata
     id="metadata7"><rdf:RDF><cc:Work
         rdf:about=""><dc:format>image/svg+xml</dc:format><dc:type
           rdf:resource="http://purl.org/dc/dcmitype/StillImage" /></cc:Work></rdf:RDF></metadata><defs
     id="defs5"><inkscape:perspective
       sodipodi:type="inkscape:persp3d"
       inkscape:vp_x="0 : 526.18109 : 1"
       inkscape:vp_y="0 : 1000 : 0"
       inkscape:vp_z="744.09448 : 526.18109 : 1"
       inkscape:persp3d-origin="372.04724 : 350.78739 : 1"
       id="perspective9" /></defs><sodipodi:namedview
     inkscape:window-height="662"
     inkscape:window-width="640"
     inkscape:pageshadow="2"
     inkscape:pageopacity="0.0"
     guidetolerance="10.0"
     gridtolerance="10.0"
     objecttolerance="10.0"
     borderopacity="1.0"
     bordercolor="#666666"
     pagecolor="#ffffff"
     id="base"
     showgrid="false"
     inkscape:zoom="0.60777778"
     inkscape:cx="450"
     inkscape:cy="315"
     inkscape:window-x="959"
     inkscape:window-y="55"
     inkscape:current-layer="g11" /><g
     id="g11"
     inkscape:groupmode="layer"
     inkscape:label="morlet"
     transform="matrix(1.25,0,0,-1.25,0,630)"><g
       id="g13"
       transform="scale(0.1,0.1)"><path
         d="M 954,576 L 7002,576"
         style="fill:none;stroke:#000000;stroke-opacity:1;stroke-width:1.25;stroke-linecap:butt;stroke-linejoin:miter;stroke-miterlimit:10;stroke-dasharray:5,10;stroke-dashoffset:0"
         id="path15" /><path
         d="M 954,576 L 985.5,576 M 7002,576 L 6970.5,576"
         style="fill:none;stroke:#000000;stroke-opacity:1;stroke-width:5;stroke-linecap:butt;stroke-linejoin:miter;stroke-miterlimit:10;stroke-dasharray:none"
         id="path17" /><g
         id="g19"
         transform="scale(10,10)"><text
           transform="matrix(1,0,0,-1,69.6063,51.6)"
           id="text21"><tspan
             style="fill:#000000;fill-opacity:1;fill-rule:nonzero;stroke:none;font-family:Times;font-variant:normal;font-weight:normal;font-size:18;writing-mode:lr;-inkscape-font-specification:Times"
             x="0 5.994"
             y="0"
             sodipodi:role="line"
             id="tspan23">-1</tspan></text>
</g><path
         d="M 954,1001 L 7002,1001"
         style="fill:none;stroke:#000000;stroke-opacity:1;stroke-width:1.25;stroke-linecap:butt;stroke-linejoin:miter;stroke-miterlimit:10;stroke-dasharray:5,10;stroke-dashoffset:0"
         id="path25" /><path
         d="M 954,1001 L 985.5,1001 M 7002,1001 L 6970.5,1001"
         style="fill:none;stroke:#000000;stroke-opacity:1;stroke-width:5;stroke-linecap:butt;stroke-linejoin:miter;stroke-miterlimit:10;stroke-dasharray:none"
         id="path27" /><g
         id="g29"
         transform="scale(10,10)"><text
           transform="matrix(1,0,0,-1,56.1063,94.1)"
           id="text31"><tspan
             style="fill:#000000;fill-opacity:1;fill-rule:nonzero;stroke:none;font-family:Times;font-variant:normal;font-weight:normal;font-size:18;writing-mode:lr;-inkscape-font-specification:Times"
             x="0 5.994 14.994 19.494"
             y="0"
             sodipodi:role="line"
             id="tspan33">-0.8</tspan></text>
</g><path
         d="M 954,1425.5 L 7002,1425.5"
         style="fill:none;stroke:#000000;stroke-opacity:1;stroke-width:1.25;stroke-linecap:butt;stroke-linejoin:miter;stroke-miterlimit:10;stroke-dasharray:5,10;stroke-dashoffset:0"
         id="path35" /><path
         d="M 954,1425.5 L 985.5,1425.5 M 7002,1425.5 L 6970.5,1425.5"
         style="fill:none;stroke:#000000;stroke-opacity:1;stroke-width:5;stroke-linecap:butt;stroke-linejoin:miter;stroke-miterlimit:10;stroke-dasharray:none"
         id="path37" /><g
         id="g39"
         transform="scale(10,10)"><text
           transform="matrix(1,0,0,-1,56.1063,136.55)"
           id="text41"><tspan
             style="fill:#000000;fill-opacity:1;fill-rule:nonzero;stroke:none;font-family:Times;font-variant:normal;font-weight:normal;font-size:18;writing-mode:lr;-inkscape-font-specification:Times"
             x="0 5.994 14.994 19.494"
             y="0"
             sodipodi:role="line"
             id="tspan43">-0.6</tspan></text>
</g><path
         d="M 954,1850.5 L 7002,1850.5"
         style="fill:none;stroke:#000000;stroke-opacity:1;stroke-width:1.25;stroke-linecap:butt;stroke-linejoin:miter;stroke-miterlimit:10;stroke-dasharray:5,10;stroke-dashoffset:0"
         id="path45" /><path
         d="M 954,1850.5 L 985.5,1850.5 M 7002,1850.5 L 6970.5,1850.5"
         style="fill:none;stroke:#000000;stroke-opacity:1;stroke-width:5;stroke-linecap:butt;stroke-linejoin:miter;stroke-miterlimit:10;stroke-dasharray:none"
         id="path47" /><g
         id="g49"
         transform="scale(10,10)"><text
           transform="matrix(1,0,0,-1,56.1063,179.05)"
           id="text51"><tspan
             style="fill:#000000;fill-opacity:1;fill-rule:nonzero;stroke:none;font-family:Times;font-variant:normal;font-weight:normal;font-size:18;writing-mode:lr;-inkscape-font-specification:Times"
             x="0 5.994 14.994 19.494"
             y="0"
             sodipodi:role="line"
             id="tspan53">-0.4</tspan></text>
</g><path
         d="M 954,2275 L 7002,2275"
         style="fill:none;stroke:#000000;stroke-opacity:1;stroke-width:1.25;stroke-linecap:butt;stroke-linejoin:miter;stroke-miterlimit:10;stroke-dasharray:5,10;stroke-dashoffset:0"
         id="path55" /><path
         d="M 954,2275 L 985.5,2275 M 7002,2275 L 6970.5,2275"
         style="fill:none;stroke:#000000;stroke-opacity:1;stroke-width:5;stroke-linecap:butt;stroke-linejoin:miter;stroke-miterlimit:10;stroke-dasharray:none"
         id="path57" /><g
         id="g59"
         transform="scale(10,10)"><text
           transform="matrix(1,0,0,-1,56.1063,221.5)"
           id="text61"><tspan
             style="fill:#000000;fill-opacity:1;fill-rule:nonzero;stroke:none;font-family:Times;font-variant:normal;font-weight:normal;font-size:18;writing-mode:lr;-inkscape-font-specification:Times"
             x="0 5.994 14.994 19.494"
             y="0"
             sodipodi:role="line"
             id="tspan63">-0.2</tspan></text>
</g><path
         d="M 954,2700 L 7002,2700"
         style="fill:none;stroke:#000000;stroke-opacity:1;stroke-width:1.25;stroke-linecap:butt;stroke-linejoin:miter;stroke-miterlimit:10;stroke-dasharray:5,10;stroke-dashoffset:0"
         id="path65" /><path
         d="M 954,2700 L 985.5,2700 M 7002,2700 L 6970.5,2700"
         style="fill:none;stroke:#000000;stroke-opacity:1;stroke-width:5;stroke-linecap:butt;stroke-linejoin:miter;stroke-miterlimit:10;stroke-dasharray:none"
         id="path67" /><g
         id="g69"
         transform="scale(10,10)"><text
           transform="matrix(1,0,0,-1,75.6,264)"
           id="text71"><tspan
             style="fill:#000000;fill-opacity:1;fill-rule:nonzero;stroke:none;font-family:Times;font-variant:normal;font-weight:normal;font-size:18;writing-mode:lr;-inkscape-font-specification:Times"
             x="0"
             y="0"
             id="tspan73">0</tspan></text>
</g><path
         d="M 954,3125 L 7002,3125"
         style="fill:none;stroke:#000000;stroke-opacity:1;stroke-width:1.25;stroke-linecap:butt;stroke-linejoin:miter;stroke-miterlimit:10;stroke-dasharray:5,10;stroke-dashoffset:0"
         id="path75" /><path
         d="M 954,3125 L 985.5,3125 M 7002,3125 L 6970.5,3125"
         style="fill:none;stroke:#000000;stroke-opacity:1;stroke-width:5;stroke-linecap:butt;stroke-linejoin:miter;stroke-miterlimit:10;stroke-dasharray:none"
         id="path77" /><g
         id="g79"
         transform="scale(10,10)"><text
           transform="matrix(1,0,0,-1,62.1,306.5)"
           id="text81"><tspan
             style="fill:#000000;fill-opacity:1;fill-rule:nonzero;stroke:none;font-family:Times;font-variant:normal;font-weight:normal;font-size:18;writing-mode:lr;-inkscape-font-specification:Times"
             x="0 9 13.5"
             y="0"
             sodipodi:role="line"
             id="tspan83">0.2</tspan></text>
</g><path
         d="M 954,3549.5 L 7002,3549.5"
         style="fill:none;stroke:#000000;stroke-opacity:1;stroke-width:1.25;stroke-linecap:butt;stroke-linejoin:miter;stroke-miterlimit:10;stroke-dasharray:5,10;stroke-dashoffset:0"
         id="path85" /><path
         d="M 954,3549.5 L 985.5,3549.5 M 7002,3549.5 L 6970.5,3549.5"
         style="fill:none;stroke:#000000;stroke-opacity:1;stroke-width:5;stroke-linecap:butt;stroke-linejoin:miter;stroke-miterlimit:10;stroke-dasharray:none"
         id="path87" /><g
         id="g89"
         transform="scale(10,10)"><text
           transform="matrix(1,0,0,-1,62.1,348.95)"
           id="text91"><tspan
             style="fill:#000000;fill-opacity:1;fill-rule:nonzero;stroke:none;font-family:Times;font-variant:normal;font-weight:normal;font-size:18;writing-mode:lr;-inkscape-font-specification:Times"
             x="0 9 13.5"
             y="0"
             sodipodi:role="line"
             id="tspan93">0.4</tspan></text>
</g><path
         d="M 954,3974.5 L 7002,3974.5"
         style="fill:none;stroke:#000000;stroke-opacity:1;stroke-width:1.25;stroke-linecap:butt;stroke-linejoin:miter;stroke-miterlimit:10;stroke-dasharray:5,10;stroke-dashoffset:0"
         id="path95" /><path
         d="M 954,3974.5 L 985.5,3974.5 M 7002,3974.5 L 6970.5,3974.5"
         style="fill:none;stroke:#000000;stroke-opacity:1;stroke-width:5;stroke-linecap:butt;stroke-linejoin:miter;stroke-miterlimit:10;stroke-dasharray:none"
         id="path97" /><g
         id="g99"
         transform="scale(10,10)"><text
           transform="matrix(1,0,0,-1,62.1,391.45)"
           id="text101"><tspan
             style="fill:#000000;fill-opacity:1;fill-rule:nonzero;stroke:none;font-family:Times;font-variant:normal;font-weight:normal;font-size:18;writing-mode:lr;-inkscape-font-specification:Times"
             x="0 9 13.5"
             y="0"
             sodipodi:role="line"
             id="tspan103">0.6</tspan></text>
</g><path
         d="M 954,4399 L 7002,4399"
         style="fill:none;stroke:#000000;stroke-opacity:1;stroke-width:1.25;stroke-linecap:butt;stroke-linejoin:miter;stroke-miterlimit:10;stroke-dasharray:5,10;stroke-dashoffset:0"
         id="path105" /><path
         d="M 954,4399 L 985.5,4399 M 7002,4399 L 6970.5,4399"
         style="fill:none;stroke:#000000;stroke-opacity:1;stroke-width:5;stroke-linecap:butt;stroke-linejoin:miter;stroke-miterlimit:10;stroke-dasharray:none"
         id="path107" /><g
         id="g109"
         transform="scale(10,10)"><text
           transform="matrix(1,0,0,-1,62.1,433.9)"
           id="text111"><tspan
             style="fill:#000000;fill-opacity:1;fill-rule:nonzero;stroke:none;font-family:Times;font-variant:normal;font-weight:normal;font-size:18;writing-mode:lr;-inkscape-font-specification:Times"
             x="0 9 13.5"
             y="0"
             sodipodi:role="line"
             id="tspan113">0.8</tspan></text>
</g><path
         d="M 954,4824 L 7002,4824"
         style="fill:none;stroke:#000000;stroke-opacity:1;stroke-width:1.25;stroke-linecap:butt;stroke-linejoin:miter;stroke-miterlimit:10;stroke-dasharray:5,10;stroke-dashoffset:0"
         id="path115" /><path
         d="M 954,4824 L 985.5,4824 M 7002,4824 L 6970.5,4824"
         style="fill:none;stroke:#000000;stroke-opacity:1;stroke-width:5;stroke-linecap:butt;stroke-linejoin:miter;stroke-miterlimit:10;stroke-dasharray:none"
         id="path117" /><g
         id="g119"
         transform="scale(10,10)"><text
           transform="matrix(1,0,0,-1,75.6,476.4)"
           id="text121"><tspan
             style="fill:#000000;fill-opacity:1;fill-rule:nonzero;stroke:none;font-family:Times;font-variant:normal;font-weight:normal;font-size:18;writing-mode:lr;-inkscape-font-specification:Times"
             x="0"
             y="0"
             id="tspan123">1</tspan></text>
</g><path
         d="M 954,576 L 954,4824"
         style="fill:none;stroke:#000000;stroke-opacity:1;stroke-width:1.25;stroke-linecap:butt;stroke-linejoin:miter;stroke-miterlimit:10;stroke-dasharray:5,10;stroke-dashoffset:0"
         id="path125" /><path
         d="M 954,576 L 954,607.5 M 954,4824 L 954,4792.5"
         style="fill:none;stroke:#000000;stroke-opacity:1;stroke-width:5;stroke-linecap:butt;stroke-linejoin:miter;stroke-miterlimit:10;stroke-dasharray:none"
         id="path127" /><g
         id="g129"
         transform="scale(10,10)"><text
           transform="matrix(1,0,0,-1,87.9031,33.6)"
           id="text131"><tspan
             style="fill:#000000;fill-opacity:1;fill-rule:nonzero;stroke:none;font-family:Times;font-variant:normal;font-weight:normal;font-size:18;writing-mode:lr;-inkscape-font-specification:Times"
             x="0 5.994"
             y="0"
             sodipodi:role="line"
             id="tspan133">-4</tspan></text>
</g><path
         d="M 1710,576 L 1710,4824"
         style="fill:none;stroke:#000000;stroke-opacity:1;stroke-width:1.25;stroke-linecap:butt;stroke-linejoin:miter;stroke-miterlimit:10;stroke-dasharray:5,10;stroke-dashoffset:0"
         id="path135" /><path
         d="M 1710,576 L 1710,607.5 M 1710,4824 L 1710,4792.5"
         style="fill:none;stroke:#000000;stroke-opacity:1;stroke-width:5;stroke-linecap:butt;stroke-linejoin:miter;stroke-miterlimit:10;stroke-dasharray:none"
         id="path137" /><g
         id="g139"
         transform="scale(10,10)"><text
           transform="matrix(1,0,0,-1,163.503,33.6)"
           id="text141"><tspan
             style="fill:#000000;fill-opacity:1;fill-rule:nonzero;stroke:none;font-family:Times;font-variant:normal;font-weight:normal;font-size:18;writing-mode:lr;-inkscape-font-specification:Times"
             x="0 5.994"
             y="0"
             sodipodi:role="line"
             id="tspan143">-3</tspan></text>
</g><path
         d="M 2466,576 L 2466,4824"
         style="fill:none;stroke:#000000;stroke-opacity:1;stroke-width:1.25;stroke-linecap:butt;stroke-linejoin:miter;stroke-miterlimit:10;stroke-dasharray:5,10;stroke-dashoffset:0"
         id="path145" /><path
         d="M 2466,576 L 2466,607.5 M 2466,4824 L 2466,4792.5"
         style="fill:none;stroke:#000000;stroke-opacity:1;stroke-width:5;stroke-linecap:butt;stroke-linejoin:miter;stroke-miterlimit:10;stroke-dasharray:none"
         id="path147" /><g
         id="g149"
         transform="scale(10,10)"><text
           transform="matrix(1,0,0,-1,239.103,33.6)"
           id="text151"><tspan
             style="fill:#000000;fill-opacity:1;fill-rule:nonzero;stroke:none;font-family:Times;font-variant:normal;font-weight:normal;font-size:18;writing-mode:lr;-inkscape-font-specification:Times"
             x="0 5.994"
             y="0"
             sodipodi:role="line"
             id="tspan153">-2</tspan></text>
</g><path
         d="M 3222,576 L 3222,4824"
         style="fill:none;stroke:#000000;stroke-opacity:1;stroke-width:1.25;stroke-linecap:butt;stroke-linejoin:miter;stroke-miterlimit:10;stroke-dasharray:5,10;stroke-dashoffset:0"
         id="path155" /><path
         d="M 3222,576 L 3222,607.5 M 3222,4824 L 3222,4792.5"
         style="fill:none;stroke:#000000;stroke-opacity:1;stroke-width:5;stroke-linecap:butt;stroke-linejoin:miter;stroke-miterlimit:10;stroke-dasharray:none"
         id="path157" /><g
         id="g159"
         transform="scale(10,10)"><text
           transform="matrix(1,0,0,-1,314.703,33.6)"
           id="text161"><tspan
             style="fill:#000000;fill-opacity:1;fill-rule:nonzero;stroke:none;font-family:Times;font-variant:normal;font-weight:normal;font-size:18;writing-mode:lr;-inkscape-font-specification:Times"
             x="0 5.994"
             y="0"
             sodipodi:role="line"
             id="tspan163">-1</tspan></text>
</g><path
         d="M 3978,576 L 3978,4824"
         style="fill:none;stroke:#000000;stroke-opacity:1;stroke-width:1.25;stroke-linecap:butt;stroke-linejoin:miter;stroke-miterlimit:10;stroke-dasharray:5,10;stroke-dashoffset:0"
         id="path165" /><path
         d="M 3978,576 L 3978,607.5 M 3978,4824 L 3978,4792.5"
         style="fill:none;stroke:#000000;stroke-opacity:1;stroke-width:5;stroke-linecap:butt;stroke-linejoin:miter;stroke-miterlimit:10;stroke-dasharray:none"
         id="path167" /><g
         id="g169"
         transform="scale(10,10)"><text
           transform="matrix(1,0,0,-1,395.55,33.6)"
           id="text171"><tspan
             style="fill:#000000;fill-opacity:1;fill-rule:nonzero;stroke:none;font-family:Times;font-variant:normal;font-weight:normal;font-size:18;writing-mode:lr;-inkscape-font-specification:Times"
             x="0"
             y="0"
             id="tspan173">0</tspan></text>
</g><path
         d="M 4734,576 L 4734,4824"
         style="fill:none;stroke:#000000;stroke-opacity:1;stroke-width:1.25;stroke-linecap:butt;stroke-linejoin:miter;stroke-miterlimit:10;stroke-dasharray:5,10;stroke-dashoffset:0"
         id="path175" /><path
         d="M 4734,576 L 4734,607.5 M 4734,4824 L 4734,4792.5"
         style="fill:none;stroke:#000000;stroke-opacity:1;stroke-width:5;stroke-linecap:butt;stroke-linejoin:miter;stroke-miterlimit:10;stroke-dasharray:none"
         id="path177" /><g
         id="g179"
         transform="scale(10,10)"><text
           transform="matrix(1,0,0,-1,471.15,33.6)"
           id="text181"><tspan
             style="fill:#000000;fill-opacity:1;fill-rule:nonzero;stroke:none;font-family:Times;font-variant:normal;font-weight:normal;font-size:18;writing-mode:lr;-inkscape-font-specification:Times"
             x="0"
             y="0"
             id="tspan183">1</tspan></text>
</g><path
         d="M 5490,576 L 5490,4824"
         style="fill:none;stroke:#000000;stroke-opacity:1;stroke-width:1.25;stroke-linecap:butt;stroke-linejoin:miter;stroke-miterlimit:10;stroke-dasharray:5,10;stroke-dashoffset:0"
         id="path185" /><path
         d="M 5490,576 L 5490,607.5 M 5490,4824 L 5490,4792.5"
         style="fill:none;stroke:#000000;stroke-opacity:1;stroke-width:5;stroke-linecap:butt;stroke-linejoin:miter;stroke-miterlimit:10;stroke-dasharray:none"
         id="path187" /><g
         id="g189"
         transform="scale(10,10)"><text
           transform="matrix(1,0,0,-1,546.75,33.6)"
           id="text191"><tspan
             style="fill:#000000;fill-opacity:1;fill-rule:nonzero;stroke:none;font-family:Times;font-variant:normal;font-weight:normal;font-size:18;writing-mode:lr;-inkscape-font-specification:Times"
             x="0"
             y="0"
             id="tspan193">2</tspan></text>
</g><path
         d="M 6246,576 L 6246,4612.5 M 6246,4792.5 L 6246,4824"
         style="fill:none;stroke:#000000;stroke-opacity:1;stroke-width:1.25;stroke-linecap:butt;stroke-linejoin:miter;stroke-miterlimit:10;stroke-dasharray:5,10;stroke-dashoffset:0"
         id="path195" /><path
         d="M 6246,576 L 6246,607.5 M 6246,4824 L 6246,4792.5"
         style="fill:none;stroke:#000000;stroke-opacity:1;stroke-width:5;stroke-linecap:butt;stroke-linejoin:miter;stroke-miterlimit:10;stroke-dasharray:none"
         id="path197" /><g
         id="g199"
         transform="scale(10,10)"><text
           transform="matrix(1,0,0,-1,622.35,33.6)"
           id="text201"><tspan
             style="fill:#000000;fill-opacity:1;fill-rule:nonzero;stroke:none;font-family:Times;font-variant:normal;font-weight:normal;font-size:18;writing-mode:lr;-inkscape-font-specification:Times"
             x="0"
             y="0"
             id="tspan203">3</tspan></text>
</g><path
         d="M 7002,576 L 7002,4824"
         style="fill:none;stroke:#000000;stroke-opacity:1;stroke-width:1.25;stroke-linecap:butt;stroke-linejoin:miter;stroke-miterlimit:10;stroke-dasharray:5,10;stroke-dashoffset:0"
         id="path205" /><path
         d="M 7002,576 L 7002,607.5 M 7002,4824 L 7002,4792.5"
         style="fill:none;stroke:#000000;stroke-opacity:1;stroke-width:5;stroke-linecap:butt;stroke-linejoin:miter;stroke-miterlimit:10;stroke-dasharray:none"
         id="path207" /><g
         id="g209"
         transform="scale(10,10)"><text
           transform="matrix(1,0,0,-1,697.95,33.6)"
           id="text211"><tspan
             style="fill:#000000;fill-opacity:1;fill-rule:nonzero;stroke:none;font-family:Times;font-variant:normal;font-weight:normal;font-size:18;writing-mode:lr;-inkscape-font-specification:Times"
             x="0"
             y="0"
             id="tspan213">4</tspan></text>
</g><path
         d="M 954,576 L 7002,576 L 7002,4824 L 954,4824 L 954,576 z"
         style="fill:none;stroke:#000000;stroke-opacity:1;stroke-width:5;stroke-linecap:butt;stroke-linejoin:miter;stroke-miterlimit:10;stroke-dasharray:none"
         id="path215" /><g
         id="g217"
         transform="scale(10,10)"><text
           transform="matrix(1,0,0,-1,395.298,6.6)"
           id="text219"><tspan
             style="fill:#000000;fill-opacity:1;fill-rule:nonzero;stroke:none;font-family:Times;font-variant:normal;font-weight:normal;font-size:18;writing-mode:lr;-inkscape-font-specification:Times"
             x="0"
             y="0"
             id="tspan221">t</tspan></text>
<text
           transform="matrix(1,0,0,-1,581.466,466.05)"
           id="text223"><tspan
             style="fill:#000000;fill-opacity:1;fill-rule:nonzero;stroke:none;font-family:Symbol;font-variant:normal;font-weight:normal;font-size:18;writing-mode:lr;-inkscape-font-specification:Symbol"
             x="0"
             y="0"
             id="tspan225">Ψ</tspan></text>
<text
           transform="matrix(1,0,0,-1,595.7762,460.65)"
           id="text227"><tspan
             style="fill:#000000;fill-opacity:1;fill-rule:nonzero;stroke:none;font-family:Symbol;font-variant:normal;font-weight:normal;font-size:14.4;writing-mode:lr;-inkscape-font-specification:Symbol"
             x="0"
             y="0"
             id="tspan229">σ</tspan></text>
<text
           transform="matrix(1,0,0,-1,604.4594,466.05)"
           id="text231"><tspan
             style="fill:#000000;fill-opacity:1;fill-rule:nonzero;stroke:none;font-family:Times;font-variant:normal;font-weight:normal;font-size:18;writing-mode:lr;-inkscape-font-specification:Times"
             x="0 5.994 10.998"
             y="0"
             sodipodi:role="line"
             id="tspan233">(t)</tspan></text>
</g><path
         d="M 6322.5,4702.5 L 6786,4702.5 M 954,2700 L 969,2700.5 L 1014.5,2700.5 L 1029.5,2701 L 1075,2701 L 1090,2701.5 L 1120.5,2701.5 L 1135.5,2702 L 1181,2702 L 1196,2702.5 L 1271.5,2702.5 L 1286.5,2702 L 1302,2702 L 1317,2701.5 L 1332,2701.5 L 1347,2701 L 1362,2700.5 L 1377.5,2700 L 1392.5,2699.5 L 1407.5,2699 L 1422.5,2698 L 1438,2697 L 1453,2696 L 1468,2695 L 1483,2694 L 1498.5,2693 L 1513.5,2692 L 1528.5,2690.5 L 1543.5,2689.5 L 1559,2688 L 1574,2687 L 1589,2686 L 1604,2684.5 L 1619.5,2683.5 L 1634.5,2682.5 L 1649.5,2682 L 1664.5,2681.5 L 1680,2681 L 1710,2681 L 1725,2681.5 L 1740,2682 L 1755.5,2683 L 1770.5,2684.5 L 1785.5,2686.5 L 1800.5,2689 L 1816,2691.5 L 1831,2695 L 1846,2698.5 L 1861,2702.5 L 1876.5,2707 L 1891.5,2712.5 L 1906.5,2717.5 L 1921.5,2723.5 L 1937,2729.5 L 1952,2736 L 1967,2743 L 1982,2749.5 L 1997.5,2756.5 L 2012.5,2763.5 L 2027.5,2770 L 2042.5,2776.5 L 2058,2782.5 L 2073,2788.5 L 2088,2793.5 L 2103,2797.5 L 2118,2801 L 2133.5,2803.5 L 2148.5,2804.5 L 2163.5,2804.5 L 2178.5,2803 L 2194,2800 L 2209,2795.5 L 2224,2789 L 2239,2781 L 2254.5,2771 L 2269.5,2759 L 2284.5,2745 L 2299.5,2729.5 L 2315,2712 L 2330,2692.5 L 2345,2671.5 L 2360,2649 L 2375.5,2625.5 L 2390.5,2600.5 L 2405.5,2574.5 L 2420.5,2548 L 2436,2521 L 2451,2494 L 2466,2467.5 L 2481,2441.5 L 2496,2417"
         style="fill:none;stroke:#ff0000;stroke-opacity:1;stroke-width:12.5;stroke-linecap:butt;stroke-linejoin:miter;stroke-miterlimit:10;stroke-dasharray:none"
         id="path235" /><path
         d="M 2496,2417 L 2511.5,2393.5 L 2526.5,2372.5 L 2541.5,2353.5 L 2556.5,2337.5 L 2572,2324.5 L 2587,2315 L 2602,2310 L 2617,2309 L 2632.5,2313 L 2647.5,2322 L 2662.5,2336 L 2677.5,2355.5 L 2693,2381 L 2708,2411.5 L 2723,2448 L 2738,2490 L 2753.5,2537 L 2768.5,2589.5 L 2783.5,2646.5 L 2798.5,2708 L 2814,2773 L 2829,2842 L 2844,2913 L 2859,2986 L 2874,3060.5 L 2889.5,3135 L 2904.5,3209 L 2919.5,3281 L 2934.5,3351 L 2950,3417 L 2965,3478.5 L 2980,3534.5 L 2995,3583.5 L 3010.5,3625.5 L 3025.5,3659 L 3040.5,3683.5 L 3055.5,3697.5 L 3071,3701.5 L 3086,3694 L 3101,3675 L 3116,3644 L 3131.5,3600.5 L 3146.5,3545.5 L 3161.5,3478.5 L 3176.5,3399.5 L 3192,3309.5 L 3207,3208.5 L 3222,3098 L 3237,2978.5 L 3252,2851 L 3267.5,2717 L 3282.5,2578 L 3297.5,2434.5 L 3312.5,2289 L 3328,2142.5 L 3343,1997.5 L 3358,1855 L 3373,1717 L 3388.5,1585 L 3403.5,1461.5 L 3418.5,1347 L 3433.5,1244.5 L 3449,1154.5 L 3464,1078.5 L 3479,1018 L 3494,974.5 L 3509.5,948 L 3524.5,940 L 3539.5,950.5 L 3554.5,980.5 L 3570,1029 L 3585,1097 L 3600,1183.5 L 3615,1288 L 3630,1409.5 L 3645.5,1547 L 3660.5,1699.5 L 3675.5,1865 L 3690.5,2042.5 L 3706,2229 L 3721,2424 L 3736,2624 L 3751,2827.5 L 3766.5,3032 L 3781.5,3235.5 L 3796.5,3435.5 L 3811.5,3629.5 L 3827,3815.5 L 3842,3991 L 3857,4154.5 L 3872,4303.5 L 3887.5,4436.5 L 3902.5,4552 L 3917.5,4648.5 L 3932.5,4724.5 L 3948,4779.5 L 3963,4813 L 3978,4824 L 3993,4813 L 4008,4779.5 L 4023.5,4724.5 L 4038.5,4648.5 L 4053.5,4552 L 4068.5,4436.5"
         style="fill:none;stroke:#ff0000;stroke-opacity:1;stroke-width:12.5;stroke-linecap:butt;stroke-linejoin:miter;stroke-miterlimit:10;stroke-dasharray:none"
         id="path237" /><path
         d="M 4068.5,4436.5 L 4084,4303.5 L 4099,4154.5 L 4114,3991 L 4129,3815.5 L 4144.5,3629.5 L 4159.5,3435.5 L 4174.5,3235.5 L 4189.5,3032 L 4205,2827.5 L 4220,2624 L 4235,2424 L 4250,2229 L 4265.5,2042.5 L 4280.5,1865 L 4295.5,1699.5 L 4310.5,1547 L 4326,1409.5 L 4341,1288 L 4356,1183.5 L 4371,1097 L 4386,1029 L 4401.5,980.5 L 4416.5,950.5 L 4431.5,940 L 4446.5,948 L 4462,974.5 L 4477,1018 L 4492,1078.5 L 4507,1154.5 L 4522.5,1244.5 L 4537.5,1347 L 4552.5,1461.5 L 4567.5,1585 L 4583,1717 L 4598,1855 L 4613,1997.5 L 4628,2142.5 L 4643.5,2289 L 4658.5,2434.5 L 4673.5,2578 L 4688.5,2717 L 4704,2851 L 4719,2978.5 L 4734,3098 L 4749,3208.5 L 4764,3309.5 L 4779.5,3399.5 L 4794.5,3478.5 L 4809.5,3545.5 L 4824.5,3600.5 L 4840,3644 L 4855,3675 L 4870,3694 L 4885,3701.5 L 4900.5,3697.5 L 4915.5,3683.5 L 4930.5,3659 L 4945.5,3625.5 L 4961,3583.5 L 4976,3534.5 L 4991,3478.5 L 5006,3417 L 5021.5,3351 L 5036.5,3281 L 5051.5,3209 L 5066.5,3135 L 5082,3060.5 L 5097,2986 L 5112,2913 L 5127,2842 L 5142,2773 L 5157.5,2708 L 5172.5,2646.5 L 5187.5,2589.5 L 5202.5,2537 L 5218,2490 L 5233,2448 L 5248,2411.5 L 5263,2381 L 5278.5,2355.5 L 5293.5,2336 L 5308.5,2322 L 5323.5,2313 L 5339,2309 L 5354,2310 L 5369,2315 L 5384,2324.5 L 5399.5,2337.5 L 5414.5,2353.5 L 5429.5,2372.5 L 5444.5,2393.5 L 5460,2417 L 5475,2441.5 L 5490,2467.5 L 5505,2494 L 5520,2521 L 5535.5,2548 L 5550.5,2574.5 L 5565.5,2600.5 L 5580.5,2625.5 L 5596,2649 L 5611,2671.5 L 5626,2692.5 L 5641,2712"
         style="fill:none;stroke:#ff0000;stroke-opacity:1;stroke-width:12.5;stroke-linecap:butt;stroke-linejoin:miter;stroke-miterlimit:10;stroke-dasharray:none"
         id="path239" /><path
         d="M 5641,2712 L 5656.5,2729.5 L 5671.5,2745 L 5686.5,2759 L 5701.5,2771 L 5717,2781 L 5732,2789 L 5747,2795.5 L 5762,2800 L 5777.5,2803 L 5792.5,2804.5 L 5807.5,2804.5 L 5822.5,2803.5 L 5838,2801 L 5853,2797.5 L 5868,2793.5 L 5883,2788.5 L 5898,2782.5 L 5913.5,2776.5 L 5928.5,2770 L 5943.5,2763.5 L 5958.5,2756.5 L 5974,2749.5 L 5989,2743 L 6004,2736 L 6019,2729.5 L 6034.5,2723.5 L 6049.5,2717.5 L 6064.5,2712.5 L 6079.5,2707 L 6095,2702.5 L 6110,2698.5 L 6125,2695 L 6140,2691.5 L 6155.5,2689 L 6170.5,2686.5 L 6185.5,2684.5 L 6200.5,2683 L 6216,2682 L 6231,2681.5 L 6246,2681 L 6276,2681 L 6291.5,2681.5 L 6306.5,2682 L 6321.5,2682.5 L 6336.5,2683.5 L 6352,2684.5 L 6367,2686 L 6382,2687 L 6397,2688 L 6412.5,2689.5 L 6427.5,2690.5 L 6442.5,2692 L 6457.5,2693 L 6473,2694 L 6488,2695 L 6503,2696 L 6518,2697 L 6533.5,2698 L 6548.5,2699 L 6563.5,2699.5 L 6578.5,2700 L 6594,2700.5 L 6609,2701 L 6624,2701.5 L 6639,2701.5 L 6654,2702 L 6669.5,2702 L 6684.5,2702.5 L 6760,2702.5 L 6775,2702 L 6820.5,2702 L 6835.5,2701.5 L 6866,2701.5 L 6881,2701 L 6926.5,2701 L 6941.5,2700.5 L 6987,2700.5 L 7002,2700"
         style="fill:none;stroke:#ff0000;stroke-opacity:1;stroke-width:12.5;stroke-linecap:butt;stroke-linejoin:miter;stroke-miterlimit:10;stroke-dasharray:none"
         id="path241" /><path
         d="M 954,576 L 7002,576 L 7002,4824 L 954,4824 L 954,576 z"
         style="fill:none;stroke:#000000;stroke-opacity:1;stroke-width:5;stroke-linecap:butt;stroke-linejoin:miter;stroke-miterlimit:10;stroke-dasharray:none"
         id="path243" /></g></g></svg>